<svg xmlns="http://www.w3.org/2000/svg" width="64" height="64" viewBox="0 0 64 64" shape-rendering="crispEdges">
  <!-- robo-panther run: morphomon palette -->
  <path d="M14 34 L5 28 L3 31 L10 39" fill="none" stroke="#0b1720" stroke-width="4"/>
  <rect x="13" y="32" width="32" height="11" fill="#4a5f8f" stroke="#0b1720" stroke-width="4"/>
  <rect x="17" y="35" width="24" height="3" fill="#f47c2c"/>
  <rect x="22" y="38" width="4" height="3" fill="#1fc7c7"/>
  <rect x="33" y="38" width="4" height="3" fill="#1fc7c7"/>
  <rect x="41" y="26" width="14" height="12" fill="#4a5f8f" stroke="#0b1720" stroke-width="4"/>
  <polygon points="44,25 48,18 51,27" fill="#1fc7c7" stroke="#0b1720" stroke-width="2"/>
  <rect x="49" y="29" width="4" height="4" fill="#fff27a"/>
  <rect x="43" y="34" width="7" height="2" fill="#1fc7c7"/>
  <rect x="7" y="36" width="10" height="5" fill="#4a5f8f" stroke="#0b1720" stroke-width="3"/>
  <rect x="19" y="42" width="6" height="15" fill="#1fc7c7" stroke="#0b1720" stroke-width="3" transform="skewX(-12)"/>
  <rect x="34" y="43" width="14" height="5" fill="#1fc7c7" stroke="#0b1720" stroke-width="3"/>
  <rect x="14" y="51" width="9" height="3" fill="#8be9ff"/>
  <rect x="48" y="47" width="7" height="3" fill="#8be9ff"/>
</svg>
